# xmcd
#
# Track frame offsets:
#	150
#	13588
#	25732
#	38546
#	53318
#	68934
#	80031
#	93377
#	106287
#	121418
#	139002
#	161125
#	172487
#
# Disc length: 2503 seconds
#
# Revision: 0
# Processed by: cddbd v1.5.1PL0 Copyright (c) Steve Scherf et al.
# Submitted via: dBpowerAMP V4.0
#
DISCID=a709c50d
DTITLE=The Black Keys - Rubber Factory
DYEAR=2004
DGENRE=blues
TTITLE0=When The Lights Go Out
TTITLE1=10AM Automatic
TTITLE2=Just Couldnt Tie Me Down
TTITLE3=All Hands Against His Own
TTITLE4=The Desperate Man
TTITLE5=Girl is On My Mind
TTITLE6=The Lengths
TTITLE7=Grown So Ugly
TTITLE8=Stack Shot Billy
TTITLE9=Act Nice and Gentle
TTITLE10=Aeroplane Blues
TTITLE11=Keep Me
TTITLE12=Till I Get My Way
EXTD=
EXTT0=
EXTT1=
EXTT2=
EXTT3=
EXTT4=
EXTT5=
EXTT6=
EXTT7=
EXTT8=
EXTT9=
EXTT10=
EXTT11=
EXTT12=
PLAYORDER=
